<?xml version="1.0" standalone="no"?>
<!DOCTYPE svg PUBLIC "-//W3C//DTD SVG 20010904//EN"
 "http://www.w3.org/TR/2001/REC-SVG-20010904/DTD/svg10.dtd">
<svg version="1.0" xmlns="http://www.w3.org/2000/svg"
 width="1152.000000pt" height="1152.000000pt" viewBox="0 0 1152.000000 1152.000000"
 preserveAspectRatio="xMidYMid meet">
<metadata>
Created by potrace 1.14, written by Peter Selinger 2001-2017
</metadata>
<g transform="translate(0.000000,1152.000000) scale(0.100000,-0.100000)"
fill="#000000" stroke="none">
<path d="M0 10191 c0 -1099 2 -1330 13 -1340 8 -6 18 -7 22 -3 5 4 5 2 2 -5
-4 -6 -1 -14 5 -16 8 -3 6 -6 -4 -6 -10 -1 -18 -6 -18 -12 0 -5 6 -7 12 -3 7
5 3 -5 -10 -20 -20 -26 -22 -40 -22 -137 0 -59 4 -110 9 -113 5 -4 11 -2 13 3
1 4 13 11 24 15 16 5 24 2 28 -11 9 -22 -17 -42 -50 -38 l-24 2 0 -1188 0
-1189 87 4 c49 3 115 9 148 15 33 6 121 13 195 16 266 10 345 16 380 24 43 11
165 24 203 22 16 -1 45 -10 65 -20 21 -10 71 -21 118 -25 44 -3 106 -13 138
-21 31 -8 88 -15 126 -15 59 0 74 -4 92 -22 16 -16 37 -23 84 -26 58 -3 66 -1
101 27 48 39 89 47 135 28 65 -27 146 -30 232 -8 43 12 82 19 86 16 5 -3 20
-1 34 5 16 6 27 6 31 -1 4 -5 10 -7 15 -4 5 3 11 2 14 -3 2 -4 18 -9 35 -10
25 -2 31 1 31 18 0 29 -28 36 -62 17 -15 -9 -28 -13 -28 -9 0 21 -51 34 -158
38 -148 6 -194 10 -261 25 -29 6 -75 8 -101 5 -28 -4 -76 0 -120 9 -39 8 -97
17 -127 20 -38 3 -67 12 -92 30 -21 14 -42 25 -48 25 -6 0 -10 11 -9 24 1 16
6 22 15 18 9 -3 12 -1 7 6 -10 17 36 54 62 49 12 -2 22 0 22 4 0 5 26 9 59 9
40 0 63 5 71 15 10 12 16 13 26 4 11 -9 14 -8 14 4 0 13 33 27 75 33 6 0 19 5
30 10 11 4 37 8 58 8 20 0 37 5 37 9 0 5 6 7 14 4 8 -3 17 -3 21 1 4 4 42 12
84 18 43 6 92 18 110 27 17 9 29 11 25 6 -6 -11 50 -3 75 11 9 4 44 11 79 15
131 13 337 62 398 94 45 23 72 31 112 31 49 0 57 3 99 44 39 36 47 50 48 83 2
22 7 49 14 61 6 11 11 32 11 47 0 15 7 28 18 32 35 12 51 36 63 92 6 31 20 73
30 93 11 21 19 43 19 51 0 7 22 49 50 94 27 45 50 86 50 91 0 6 13 24 29 40
16 16 34 48 41 71 6 22 25 57 42 77 29 33 31 39 20 66 -9 25 -8 37 5 67 9 20
17 68 18 106 2 40 12 98 25 134 16 48 19 74 14 100 -4 20 -7 52 -5 71 2 36 51
140 81 175 10 11 28 40 41 65 29 56 31 148 5 198 -17 33 -17 34 8 71 14 20 26
42 26 47 0 6 13 26 30 44 16 18 30 37 30 40 0 4 -11 17 -25 30 l-25 24 30 31
c25 26 32 42 34 83 4 65 26 98 82 122 24 11 47 27 50 37 7 21 49 115 70 157 8
16 29 66 46 110 17 45 37 90 44 101 6 11 15 31 19 44 4 14 20 42 36 63 19 27
30 58 35 96 4 32 20 80 35 110 22 39 29 66 29 106 0 43 7 65 35 111 19 31 39
81 45 111 8 40 20 60 44 82 l34 29 -13 49 c-11 43 -10 53 6 84 11 19 19 38 19
43 0 4 16 33 35 63 19 30 35 58 35 63 0 12 21 19 41 14 23 -6 47 -94 61 -219
12 -119 21 -142 45 -119 34 35 53 16 99 -95 19 -47 51 -102 78 -133 25 -30 46
-59 46 -64 0 -6 14 -25 32 -42 37 -36 64 -39 171 -15 98 22 115 33 145 90 15
27 32 49 39 49 6 0 15 4 20 9 4 5 3 6 -4 2 -17 -10 -27 13 -12 30 7 8 14 31
16 49 3 31 0 35 -24 41 -40 9 -78 48 -93 95 -20 61 -7 75 66 71 33 -2 71 -8
86 -14 22 -8 33 -7 50 4 13 8 52 18 88 22 36 5 72 9 80 10 35 6 150 66 162 85
7 12 18 21 25 21 9 0 12 15 11 48 0 26 1 67 4 90 4 35 1 47 -15 63 -12 10 -25
19 -30 19 -5 0 -36 20 -68 44 -32 24 -63 46 -68 48 -5 1 -11 9 -13 17 -3 16
-15 32 -52 74 -14 15 -26 33 -27 40 -3 26 2 37 16 37 8 0 15 4 15 9 0 13 69
21 210 25 146 3 259 -7 388 -35 81 -18 117 -20 280 -16 103 3 200 10 215 16
20 8 53 8 115 1 48 -5 116 -10 152 -10 82 0 135 -15 155 -42 12 -19 13 -24 1
-37 -8 -9 -17 -33 -21 -53 -4 -21 -13 -42 -21 -49 -8 -6 -14 -22 -14 -36 0
-34 -26 -80 -49 -88 -11 -3 -31 -19 -44 -34 -38 -46 -60 -53 -123 -42 -30 6
-59 13 -64 16 -4 3 -11 -1 -14 -7 -8 -20 -35 19 -29 41 8 30 -46 52 -72 31 -7
-6 -17 -10 -21 -8 -35 9 -127 -18 -195 -57 -41 -25 -89 -47 -105 -51 -46 -9
-114 26 -163 85 -24 28 -49 51 -56 51 -25 0 -45 -31 -45 -69 0 -26 -9 -51 -30
-79 -17 -23 -27 -42 -23 -42 5 0 0 -5 -9 -11 -24 -14 -32 -70 -17 -116 7 -21
14 -44 15 -50 1 -7 9 -19 17 -28 15 -14 20 -33 31 -98 11 -68 17 -73 64 -61
14 4 22 14 22 28 0 12 7 31 15 42 8 10 15 38 15 61 0 33 6 46 27 62 14 12 38
24 52 27 14 4 45 17 67 30 23 13 59 26 81 30 l40 6 31 -93 c16 -52 35 -121 42
-154 33 -171 57 -229 104 -249 37 -15 71 -57 82 -102 10 -41 76 -144 92 -144
8 0 21 18 30 40 20 46 49 61 68 35 18 -25 47 -123 48 -162 0 -22 -11 -44 -40
-77 -21 -26 -52 -66 -69 -89 -16 -23 -46 -58 -66 -77 -44 -42 -67 -77 -79
-121 -8 -28 -6 -40 17 -78 14 -25 29 -48 33 -51 3 -3 25 -31 48 -62 46 -63 67
-73 149 -72 47 0 56 4 85 37 32 35 41 38 222 82 229 55 256 56 305 13 20 -17
39 -43 43 -57 10 -34 -20 -142 -44 -159 -10 -7 -18 -21 -18 -31 0 -9 -5 -22
-11 -28 -19 -19 -2 -42 45 -62 24 -11 46 -25 48 -33 9 -27 -76 -68 -174 -83
-27 -4 -48 -10 -48 -14 0 -4 -8 -7 -17 -8 -10 -1 -36 -5 -59 -8 -38 -7 -42 -5
-67 29 -43 56 -126 61 -185 11 -44 -37 -79 -39 -151 -10 -80 33 -184 44 -209
23 -34 -31 -62 -40 -78 -27 -8 6 -14 19 -14 29 0 31 -138 42 -192 14 -17 -9
-89 -27 -160 -40 -111 -20 -138 -29 -188 -61 -33 -21 -59 -45 -59 -53 -1 -9
10 -31 23 -51 21 -31 22 -37 10 -54 -19 -26 -18 -41 7 -75 12 -16 27 -50 34
-76 12 -49 11 -54 -32 -99 -7 -8 -13 -18 -13 -23 0 -15 -65 -42 -102 -42 -24
0 -42 8 -59 26 -22 24 -28 26 -86 21 -74 -7 -125 -27 -162 -64 -16 -16 -50
-44 -77 -63 -26 -19 -57 -46 -69 -58 -11 -13 -28 -28 -37 -33 -15 -8 -16 -7
-2 18 7 16 14 35 14 43 0 9 18 33 39 54 71 69 54 103 -24 50 -43 -29 -61 -21
-51 21 4 15 17 30 34 36 37 14 63 45 65 77 2 25 0 27 -33 23 -19 -1 -43 -9
-54 -17 -11 -8 -35 -14 -54 -14 -18 0 -54 -11 -80 -24 -26 -13 -60 -26 -76
-30 -16 -4 -45 -18 -65 -32 -19 -13 -41 -24 -48 -24 -6 0 -24 -11 -40 -24 -15
-13 -43 -31 -60 -40 -41 -21 -44 -56 -8 -80 30 -20 31 -29 7 -64 -19 -29 -20
-35 -8 -69 9 -29 51 -31 68 -3 8 12 24 20 40 20 28 0 97 54 86 66 -7 6 39 54
52 54 5 0 16 10 24 22 9 12 18 19 22 15 3 -3 17 7 31 24 15 18 34 29 50 29 33
0 25 -21 -15 -40 -18 -9 -39 -25 -48 -38 -8 -12 -21 -22 -28 -22 -7 0 -18 -10
-25 -23 -7 -13 -27 -31 -46 -41 -21 -12 -31 -24 -28 -33 3 -7 -2 -22 -12 -32
-9 -11 -18 -25 -19 -33 -7 -32 -19 -46 -44 -52 -17 -4 -40 -24 -62 -55 -25
-36 -44 -52 -72 -60 -40 -12 -41 -15 -38 -69 1 -21 -4 -34 -14 -38 -9 -3 -16
-12 -16 -20 0 -8 -3 -13 -7 -13 -23 4 -33 -3 -33 -22 0 -11 -5 -17 -10 -14 -6
4 -8 11 -4 16 3 6 -2 26 -11 46 l-17 36 -19 -24 c-11 -15 -14 -26 -7 -30 7 -4
7 -9 -1 -13 -6 -4 -15 -4 -21 -1 -5 3 -10 0 -10 -7 0 -10 -3 -9 -10 2 -7 12
-12 11 -31 -5 -12 -11 -37 -43 -55 -71 -31 -48 -34 -66 -25 -134 1 -3 11 -6
24 -5 32 0 103 43 118 71 7 13 17 24 23 25 6 0 2 4 -8 8 -20 8 -30 37 -16 46
5 3 7 12 4 20 -4 8 -11 12 -16 9 -6 -4 -9 -1 -7 5 3 7 8 12 12 12 4 -1 13 -1
20 -1 8 0 20 -11 27 -25 7 -14 20 -25 29 -25 13 0 13 -2 3 -9 -7 -4 -14 -14
-15 -22 -2 -8 -6 -20 -10 -26 -5 -7 -4 -13 2 -13 6 0 2 -15 -9 -32 -10 -18
-21 -44 -23 -58 -7 -34 -45 -103 -76 -137 -51 -56 -59 -104 -23 -145 20 -23
34 -23 52 3 59 83 95 125 111 131 38 15 88 -21 70 -51 -4 -6 -3 -37 3 -67 9
-51 13 -58 45 -73 20 -9 43 -23 51 -32 8 -9 41 -23 73 -33 62 -19 126 -55 127
-72 0 -6 11 -17 25 -24 14 -7 25 -17 25 -22 0 -4 13 -8 30 -8 22 0 41 -12 76
-47 27 -28 55 -48 69 -48 28 -2 75 -31 75 -48 0 -6 5 -29 11 -50 8 -30 21 -45
60 -68 27 -17 49 -34 49 -39 0 -4 12 -11 28 -15 36 -9 72 -43 72 -69 0 -15 3
-17 8 -8 6 9 14 1 26 -27 10 -21 15 -44 12 -49 -3 -6 -2 -13 4 -17 6 -4 8 -10
5 -15 -3 -5 -1 -11 4 -15 6 -3 13 -26 17 -51 3 -25 12 -50 18 -57 7 -7 11 -33
10 -59 -1 -34 2 -48 11 -48 15 0 29 -44 14 -48 -6 -3 -5 -9 2 -18 9 -11 9 -18
1 -26 -23 -23 -3 -70 25 -61 6 2 14 -1 18 -6 3 -6 0 -8 -9 -5 -9 3 -17 -2 -21
-15 -3 -12 -10 -19 -15 -16 -14 9 -38 -5 -43 -26 -4 -14 1 -23 16 -29 12 -5
17 -9 12 -9 -6 -1 -16 -10 -22 -21 -10 -16 -10 -18 1 -14 7 3 21 -2 30 -11 9
-9 19 -14 24 -11 4 2 13 -4 20 -14 9 -14 9 -21 0 -26 -6 -4 -8 -3 -4 4 3 6 1
14 -5 18 -9 5 -10 -5 -6 -40 6 -42 5 -47 -9 -42 -12 5 -15 2 -10 -10 5 -13 3
-14 -7 -6 -10 8 -13 6 -13 -9 0 -14 5 -19 18 -16 10 3 16 1 12 -4 -3 -5 -12
-9 -20 -9 -8 0 -22 -8 -33 -19 -10 -10 -24 -20 -30 -22 -17 -6 -22 -59 -5 -59
7 0 16 10 20 23 4 12 17 32 29 44 l22 23 -4 -24 c-3 -14 -10 -23 -17 -20 -6 2
-17 -9 -23 -25 -13 -35 -2 -48 35 -45 28 2 28 -2 0 -17 -18 -10 -24 -8 -39 12
-19 25 -26 16 -9 -11 6 -10 4 -22 -6 -39 -9 -13 -12 -21 -6 -17 5 3 12 -5 14
-19 4 -20 3 -23 -8 -14 -11 9 -14 8 -14 -5 0 -10 -4 -15 -9 -11 -5 3 -13 0
-17 -6 -4 -7 -3 -9 4 -5 6 3 13 -3 17 -14 4 -11 11 -17 17 -14 7 4 8 2 4 -4
-4 -7 -12 -12 -18 -12 -16 0 -58 -48 -58 -66 0 -9 5 -24 10 -34 12 -22 0 -32
-40 -38 -13 -2 -28 -9 -32 -15 -5 -8 -11 -8 -15 -2 -5 6 -16 11 -27 13 -17 3
-17 2 3 -23 20 -26 20 -45 1 -45 -4 0 -6 10 -2 22 3 14 2 19 -6 14 -7 -4 -12
-21 -12 -37 0 -17 -4 -28 -9 -25 -5 4 -11 1 -13 -6 -3 -7 -15 -13 -29 -13 -17
0 -25 -6 -27 -23 -4 -25 15 -55 28 -47 5 3 11 1 15 -5 4 -6 -5 -10 -19 -10
-14 0 -26 4 -26 9 0 6 -9 9 -20 8 -13 -1 -19 -6 -15 -15 8 -22 -6 -62 -22 -62
-8 0 -11 -5 -7 -11 4 -7 2 -10 -5 -8 -7 3 -11 8 -9 13 2 5 -13 15 -32 22 -19
7 -29 13 -22 13 15 1 16 31 1 31 -6 0 -8 7 -5 16 5 14 4 15 -8 5 -9 -8 -16 -8
-20 -2 -4 5 -2 12 4 16 6 4 8 11 4 16 -9 16 -47 -40 -41 -61 3 -11 1 -18 -4
-14 -5 3 -9 -4 -9 -15 0 -28 -23 -26 -56 4 -21 20 -30 23 -41 13 -8 -6 -12
-17 -9 -23 3 -9 -2 -11 -16 -7 -11 2 -23 0 -27 -7 -9 -14 -37 -5 -45 14 -5 14
38 29 64 23 7 -2 15 4 17 12 4 12 3 12 -5 1 -5 -7 -12 -9 -15 -4 -9 14 25 39
46 35 19 -4 24 23 5 34 -8 5 -9 2 -5 -10 6 -14 4 -15 -15 -5 -16 8 -18 13 -8
19 21 13 -46 64 -84 65 -36 0 -64 35 -37 47 12 5 10 7 -6 7 -13 1 -26 0 -29
-1 -3 -2 -11 6 -17 17 -12 22 -14 26 -16 52 -1 15 -3 15 -15 -3 -14 -19 -14
-19 -13 1 1 13 -3 19 -13 17 -12 -3 -13 -1 -3 9 15 15 17 33 3 24 -5 -3 -10 0
-10 8 0 8 -13 20 -30 25 -16 6 -29 8 -29 4 1 -4 1 -14 0 -22 -1 -12 -4 -11
-18 2 -14 14 -14 19 -3 33 12 14 11 18 -1 26 -8 5 -17 9 -20 9 -3 0 -12 11
-19 25 -10 18 -16 22 -22 13 -5 -9 -8 -8 -8 6 0 12 -5 16 -16 12 -10 -4 -13
-2 -8 6 5 8 2 9 -9 5 -10 -3 -17 -2 -17 2 0 5 6 12 12 14 10 4 10 6 1 6 -7 1
-13 6 -13 12 0 5 4 8 9 5 5 -3 11 0 14 8 4 9 0 12 -13 9 -21 -6 -22 23 -1 36
10 6 9 10 -4 15 -11 4 -15 13 -12 26 3 11 1 20 -5 20 -5 0 -6 6 -2 13 5 8 2 8
-9 -2 -12 -9 -17 -10 -17 -2 0 7 -4 9 -10 6 -7 -4 -7 2 0 19 8 21 6 26 -11 31
-10 4 -17 11 -14 16 6 8 -2 11 -21 8 -4 0 -10 4 -13 9 -10 16 -61 26 -61 12 0
-7 -12 -3 -29 9 -33 24 -45 27 -36 9 4 -7 0 -5 -8 5 -11 13 -16 15 -19 5 -3
-7 -7 -3 -10 10 -4 12 -2 20 3 16 5 -3 9 1 9 9 0 8 7 21 16 28 14 12 14 14 -3
20 -14 6 -15 8 -2 8 9 1 16 8 16 15 0 8 -3 14 -7 13 -8 -3 -70 59 -65 65 3 2
-9 3 -26 2 -17 -1 -36 -8 -43 -15 -8 -9 -7 -10 7 -5 26 9 16 -16 -11 -30 -12
-6 -19 -14 -15 -18 5 -4 0 -12 -10 -17 -9 -6 -16 -13 -13 -17 2 -4 -16 -21
-40 -37 -47 -32 -54 -50 -27 -70 15 -11 12 -15 -26 -40 -24 -16 -37 -31 -31
-35 6 -4 8 -14 4 -23 -4 -11 -1 -17 7 -17 11 0 11 -3 -1 -10 -9 -6 -10 -10 -3
-10 7 0 21 9 32 21 l19 21 -8 -36 c-6 -26 -4 -38 7 -48 12 -10 11 -14 -11 -25
-30 -16 -35 -33 -8 -26 16 4 18 0 14 -25 -2 -19 2 -35 15 -47 10 -10 16 -21
14 -24 -2 -3 5 -10 15 -16 19 -10 22 -55 3 -55 -5 0 -9 -4 -9 -10 0 -5 8 -6
18 -3 15 6 15 5 3 -10 -12 -15 -12 -17 3 -11 11 4 16 1 16 -13 0 -11 11 -30
25 -43 28 -26 28 -40 0 -57 -22 -12 -27 -34 -10 -45 6 -5 5 -11 -5 -18 -8 -5
-11 -10 -7 -10 5 0 1 -7 -7 -16 -9 -8 -14 -19 -11 -23 2 -5 -7 -6 -22 -3 -16
3 -24 1 -20 -6 10 -15 -21 -24 -43 -12 -12 7 -17 16 -13 27 5 12 2 15 -9 11
-20 -8 -38 10 -38 38 0 14 -8 25 -20 29 -11 3 -20 14 -20 23 -1 17 -29 74 -30
59 0 -16 -120 116 -126 139 -4 13 -10 27 -15 30 -5 3 -7 9 -4 14 3 5 -13 26
-35 47 -23 20 -52 57 -65 83 -13 25 -43 68 -67 95 -61 69 -85 112 -93 168 -6
35 -19 61 -52 101 -24 30 -53 56 -64 59 -27 7 -51 -32 -55 -88 -1 -24 -9 -56
-18 -72 -8 -15 -23 -43 -32 -60 l-18 -33 36 -32 37 -33 -5 -85 c-5 -112 -11
-145 -34 -182 -17 -28 -17 -34 -4 -60 8 -15 27 -36 42 -45 40 -26 43 -34 21
-69 -24 -40 -24 -61 1 -69 25 -8 60 -65 60 -100 0 -19 11 -38 35 -61 61 -57
108 -123 173 -244 13 -25 32 -54 43 -66 10 -11 19 -25 19 -30 0 -10 37 -82 75
-145 17 -29 20 -49 18 -132 -1 -54 2 -109 7 -122 8 -21 -12 -120 -37 -175 -3
-8 -8 -35 -10 -60 -2 -34 -10 -50 -30 -67 -15 -12 -30 -20 -35 -17 -4 3 -8 1
-8 -5 0 -6 -17 -13 -37 -17 -21 -4 -51 -13 -67 -21 -41 -21 -181 -21 -202 0
-4 4 -20 7 -35 7 -19 0 -39 12 -62 35 -37 38 -69 44 -101 20 -22 -16 -64 -19
-84 -6 -7 4 -12 21 -10 36 2 22 -3 31 -27 45 -16 9 -35 27 -42 40 -6 13 -18
27 -27 32 -8 5 -24 29 -35 53 -21 48 -38 53 -57 18 -18 -32 -26 -134 -12 -151
7 -8 15 -37 19 -66 4 -28 14 -76 23 -106 9 -31 18 -111 21 -185 2 -71 10 -183
16 -248 6 -65 9 -132 7 -149 -3 -17 3 -68 13 -112 10 -45 20 -99 23 -121 2
-22 9 -58 15 -80 6 -22 11 -53 11 -69 l0 -29 -122 7 c-68 4 -142 11 -166 16
-40 7 -44 6 -70 -25 -15 -18 -36 -37 -48 -43 -11 -6 -35 -39 -54 -74 -18 -35
-41 -70 -52 -79 -12 -9 -21 -31 -23 -53 -3 -28 -17 -53 -58 -99 -29 -34 -61
-73 -70 -87 -24 -34 -22 -147 3 -245 12 -47 20 -111 20 -160 0 -71 3 -85 21
-101 12 -10 30 -35 41 -54 10 -19 30 -53 43 -75 31 -51 35 -151 8 -184 -16
-19 -29 -21 -138 -22 -108 -2 -117 -3 -85 -14 19 -7 73 -18 120 -24 l86 -12
22 -42 c33 -61 95 -123 176 -175 39 -24 85 -57 101 -73 38 -35 171 -92 252
-108 34 -6 115 -30 180 -52 266 -90 304 -94 989 -95 578 -2 593 -3 719 -54 48
-19 107 -33 171 -40 66 -7 117 -19 154 -36 36 -17 87 -29 145 -35 50 -6 131
-17 181 -25 49 -8 108 -14 130 -14 41 0 74 -8 229 -54 49 -15 121 -31 160 -37
78 -11 154 -43 234 -97 l53 -37 342 -1 341 -1 120 36 120 35 230 2 c127 1 256
5 287 9 37 5 79 3 116 -5 77 -16 229 8 317 49 33 16 85 32 115 36 30 4 80 13
110 21 86 21 395 66 493 71 74 4 96 2 137 -16 29 -13 70 -21 102 -21 62 0 323
44 341 57 22 17 181 72 257 89 68 15 171 62 185 84 9 14 -24 27 -105 40 -119
21 -145 43 -64 55 25 3 55 16 66 27 20 20 20 22 4 34 -10 7 -50 20 -90 28 -94
21 -162 78 -123 103 17 11 155 72 192 85 58 21 91 54 115 117 l22 61 -36 44
c-20 24 -51 73 -70 108 -22 40 -48 72 -73 89 -68 46 -398 163 -548 194 -44 9
-136 30 -204 46 -68 16 -178 39 -245 49 -317 52 -340 59 -329 113 3 17 27 66
54 107 26 41 53 95 59 120 17 64 34 87 89 114 35 18 53 35 65 63 10 21 26 54
37 73 38 66 89 181 89 201 0 16 32 83 94 199 8 14 19 47 26 75 6 27 17 57 24
65 21 25 46 98 46 136 0 36 61 184 91 219 9 11 20 43 24 70 4 28 13 68 21 90
8 22 19 96 25 165 6 69 13 141 15 160 10 87 12 399 3 435 -6 22 -14 92 -18
156 -8 100 -14 127 -43 195 -19 43 -43 104 -53 134 -29 90 -51 120 -90 120
-20 0 -35 -6 -39 -15 -3 -8 -14 -15 -25 -15 -40 0 -91 -32 -91 -57 0 -18 5
-23 28 -23 25 0 27 -3 27 -40 0 -38 -5 -44 -32 -41 -8 1 -13 -9 -13 -25 0 -24
-3 -26 -30 -21 -42 9 -90 65 -84 97 4 16 2 21 -3 13 -6 -9 -13 -2 -22 25 -8
20 -24 50 -37 65 -16 19 -24 41 -24 66 0 20 -4 41 -9 47 -9 9 -40 112 -61 201
-7 31 -11 116 -11 207 2 128 -1 156 -14 170 -20 20 -75 124 -75 142 0 8 -4 14
-10 14 -5 0 -10 6 -10 13 0 7 -13 31 -30 53 -22 30 -31 56 -35 100 -8 87 -14
110 -43 173 -19 41 -27 75 -28 126 -3 77 -19 155 -65 308 -17 56 -34 118 -39
137 -4 19 -20 69 -35 110 -15 41 -29 86 -31 100 -27 142 -33 192 -30 230 4 63
-10 183 -28 233 -9 24 -17 95 -20 167 -9 194 -27 267 -82 336 -44 53 -84 172
-84 247 0 65 -24 121 -85 201 l-36 47 5 107 c6 125 13 168 29 170 7 0 22 3 34
6 17 4 29 -4 51 -32 38 -50 72 -118 72 -145 0 -13 4 -27 9 -32 5 -6 11 -17 13
-25 6 -29 126 -130 153 -130 14 0 25 -3 25 -7 0 -9 49 -40 94 -60 34 -16 39
-16 31 -2 -4 6 2 5 14 -3 20 -12 20 -14 5 -25 -16 -12 -27 -76 -11 -66 4 2 7
0 7 -6 0 -5 7 -17 15 -25 9 -8 18 -32 21 -53 3 -26 13 -46 34 -63 39 -32 41
-83 5 -136 -23 -34 -24 -38 -9 -55 9 -10 30 -21 47 -25 51 -11 77 -33 77 -65
0 -15 5 -31 10 -34 13 -8 13 -55 1 -55 -5 0 -17 -14 -25 -31 -15 -30 -15 -33
9 -60 14 -18 26 -48 30 -77 12 -95 16 -110 30 -122 8 -7 15 -21 15 -31 0 -10
5 -30 12 -43 9 -22 8 -29 -7 -46 -23 -25 -14 -46 30 -67 38 -18 49 -40 46 -92
-1 -18 4 -43 12 -55 7 -12 14 -56 15 -101 3 -97 14 -109 100 -119 73 -8 101
-32 84 -71 -10 -21 -8 -27 11 -40 12 -8 29 -15 39 -15 9 0 32 -13 50 -29 43
-37 60 -42 155 -43 45 0 89 -6 105 -14 39 -20 61 -17 87 10 16 17 28 22 40 17
58 -29 130 -42 203 -37 43 3 87 10 99 16 13 8 24 8 32 2 25 -21 130 -32 185
-19 48 11 54 17 77 60 16 30 23 55 20 70 -8 31 16 51 50 43 37 -10 41 -32 11
-74 -37 -54 -43 -93 -16 -117 20 -18 40 -19 288 -21 420 -3 731 -13 805 -25
41 -7 91 -8 125 -3 32 4 62 7 69 5 21 -3 25 20 7 35 -41 31 -162 83 -206 89
-38 5 -48 10 -48 25 0 22 37 31 115 28 60 -2 197 8 228 18 12 3 39 24 60 45
26 27 49 41 77 45 l40 7 0 2428 0 2429 -5760 0 -5760 0 0 -1329z m7670 1150
c15 -29 -3 -65 -44 -91 -20 -12 -36 -24 -36 -27 0 -3 9 -16 20 -30 26 -34 25
-81 -4 -151 -12 -31 -29 -79 -36 -107 -7 -27 -17 -54 -21 -59 -5 -6 -9 -45 -9
-87 0 -68 -3 -81 -25 -107 -14 -17 -40 -34 -57 -37 -17 -4 -45 -13 -61 -20
l-30 -12 50 -17 c59 -20 86 -45 81 -78 -2 -19 -11 -24 -53 -30 -27 -3 -77 -7
-110 -7 -33 -1 -67 -6 -75 -11 -8 -5 -10 -10 -5 -11 33 -3 49 -10 70 -33 17
-18 34 -26 58 -26 36 0 57 -15 57 -40 0 -27 -31 -47 -85 -54 -81 -12 -125 -26
-125 -41 0 -20 13 -25 70 -29 58 -3 133 -49 138 -85 5 -29 -83 -118 -129 -131
-66 -19 -118 -13 -149 19 -24 24 -28 34 -23 64 3 22 1 37 -7 42 -7 4 -51 10
-98 12 -94 5 -155 23 -189 55 -30 28 -29 51 3 68 l26 14 -22 18 c-20 16 -20
18 -5 48 9 18 14 38 11 46 -3 7 -1 16 4 19 24 15 8 27 -26 20 -64 -12 -73 34
-19 94 19 21 35 49 35 61 0 13 16 37 40 59 34 31 40 43 40 75 0 22 7 47 16 57
12 13 13 22 5 38 -6 11 -11 33 -11 50 0 34 28 56 133 104 68 31 143 88 252
191 88 84 174 141 250 167 66 23 82 23 95 0z m-2951 -57 c90 -23 135 -47 160
-88 12 -19 28 -37 36 -40 22 -8 20 -81 -4 -105 -23 -23 -21 -73 3 -99 9 -10
16 -28 16 -39 0 -21 35 -59 72 -77 13 -6 32 -27 42 -47 11 -20 32 -41 48 -48
32 -15 37 -41 9 -58 -13 -8 -22 -29 -27 -58 -9 -60 -42 -92 -92 -91 -73 2 -35
58 63 94 17 6 25 11 18 11 -7 1 -10 8 -7 16 12 32 -83 32 -256 0 -198 -36
-230 -20 -274 135 -19 67 -19 66 -81 115 -27 22 -56 46 -63 53 -21 20 -32 14
-48 -24 -17 -41 -44 -43 -55 -3 -8 33 7 133 25 162 8 12 21 47 30 77 28 94 47
108 176 120 120 12 140 11 209 -6z m62 -706 c32 -13 59 -26 59 -29 0 -9 -139
-79 -156 -79 -19 0 -91 36 -99 50 -10 17 15 51 48 65 46 20 81 18 148 -7z
m668 -92 c8 -10 7 -21 -5 -45 -8 -17 -20 -31 -25 -31 -6 0 -8 4 -5 8 3 5 -4
16 -15 25 -19 17 -25 38 -12 50 11 12 50 8 62 -7z m2117 -855 c-3 -5 1 -14 9
-21 8 -7 15 -19 15 -26 0 -7 12 -22 27 -31 45 -30 81 -76 92 -118 6 -22 24
-54 41 -70 26 -25 30 -36 30 -82 0 -29 4 -61 9 -71 32 -60 61 -144 60 -173 0
-19 -13 -54 -28 -79 -26 -42 -30 -45 -70 -44 -28 1 -49 8 -63 21 -28 28 -48
132 -41 214 5 56 2 74 -20 125 -14 32 -28 75 -30 95 -3 20 -14 56 -25 80 -26
58 -37 189 -16 189 9 0 13 -4 10 -9z m-6316 -541 c0 -5 -7 -10 -15 -10 -8 0
-15 5 -15 10 0 6 7 10 15 10 8 0 15 -4 15 -10z m-606 -26 c21 -20 20 -50 0
-58 -9 -3 -40 -6 -70 -6 -67 0 -82 21 -40 57 32 27 87 31 110 7z m-78 -199 c4
-8 12 -15 20 -15 8 0 14 -5 14 -12 0 -6 6 -4 13 6 12 16 20 16 99 6 62 -8 92
-9 106 -1 12 6 32 11 47 11 23 0 25 -4 24 -32 -1 -18 1 -43 5 -56 10 -29 -8
-52 -41 -52 -29 0 -70 20 -140 67 -42 29 -57 34 -82 28 -17 -4 -31 -10 -31
-14 0 -4 -31 -7 -69 -6 -41 0 -67 4 -65 10 2 6 -7 10 -20 10 -18 0 -22 -3 -14
-12 7 -9 3 -14 -16 -19 -14 -3 -26 -9 -26 -13 0 -10 -70 -12 -88 -1 -16 9 -15
9 1 10 10 0 15 4 12 10 -3 5 6 12 21 16 15 4 39 13 53 20 16 8 30 10 42 4 11
-7 20 -5 27 3 6 7 23 13 39 15 15 1 32 9 38 17 13 19 24 19 31 0z m9922 -34
c11 -7 10 -10 -3 -15 -20 -7 -38 1 -30 15 7 11 16 11 33 0z m-8993 -133 c-2
-24 -19 -35 -29 -19 -3 5 1 17 10 25 20 21 21 20 19 -6z m-811 -44 c21 -8 20
-31 -1 -38 -58 -17 -93 -17 -108 -2 -14 14 -13 16 12 21 23 5 73 20 80 24 1 1
8 -2 17 -5z m311 -44 c17 -11 26 -20 21 -20 -5 0 -3 -7 4 -15 10 -12 10 -15
-1 -16 -8 0 -51 -2 -96 -4 -82 -3 -83 -3 -83 21 0 14 6 26 13 28 27 8 93 24
102 25 6 0 24 -8 40 -19z m-455 -79 c0 -13 -26 -32 -33 -24 -14 13 -6 33 13
33 11 0 20 -4 20 -9z m10731 -122 c11 -19 -2 -48 -32 -70 -34 -24 -38 -24
-146 -8 -60 9 -89 10 -105 2 -40 -19 -60 -24 -79 -18 -24 8 -25 35 -1 36 9 0
35 1 57 2 28 1 45 9 58 24 13 16 33 23 75 28 31 4 68 10 82 14 32 10 81 5 91
-10z m-803 -41 c-3 -20 -10 -23 -56 -26 -41 -2 -54 0 -59 13 -8 24 14 35 70
35 44 0 48 -2 45 -22z m-2143 -39 c68 -17 68 -18 56 -33 -10 -12 -102 -36
-138 -36 -18 0 -16 40 4 62 19 21 24 21 78 7z m1910 -65 c29 -30 15 -49 -41
-52 -38 -2 -57 2 -74 16 -21 17 -21 19 -5 35 22 22 98 23 120 1z m939 -19 c-4
-8 -10 -12 -15 -9 -11 6 -2 24 11 24 5 0 7 -7 4 -15z m-86 -7 c-3 -7 -17 -13
-33 -13 -16 0 -30 6 -32 13 -3 8 7 12 32 12 25 0 35 -4 33 -12z m-69 -99 c17
-6 31 -15 31 -20 0 -15 -38 -29 -80 -29 -35 0 -47 -6 -73 -35 -33 -38 -66 -45
-91 -19 -32 32 -15 64 35 64 10 0 27 8 38 19 33 33 83 40 140 20z m-2275 -75
c18 -7 12 -24 -8 -24 -7 0 -21 7 -32 15 -19 14 -19 14 3 15 12 0 28 -3 37 -6z
m1804 -86 c2 -8 -8 -25 -21 -38 -21 -20 -23 -26 -13 -62 8 -32 8 -41 -4 -48
-21 -13 -130 -13 -130 1 0 6 12 26 26 45 25 32 26 35 10 59 -13 19 -14 29 -5
43 15 24 132 24 137 0z m658 -31 c34 -31 35 -35 23 -55 -18 -28 -43 -36 -68
-23 -11 6 -38 11 -60 11 -44 0 -113 28 -108 44 2 5 10 13 18 17 11 6 123 34
152 38 4 0 24 -14 43 -32z m-1791 -23 c50 -9 115 -18 145 -20 63 -6 99 -20 96
-40 -3 -20 -7 -22 -59 -28 -27 -3 -53 -8 -58 -12 -15 -9 -220 -5 -274 5 -54
10 -66 23 -63 66 3 31 15 35 108 43 8 1 56 -5 105 -14z m489 -37 c50 -53 74
-67 120 -67 46 0 86 -16 86 -35 0 -8 -1 -15 -2 -15 -104 -17 -152 -6 -213 50
-16 15 -41 31 -55 35 -35 10 -50 24 -50 45 0 20 13 28 49 29 17 1 38 -13 65
-42z m-4852 -79 c-7 -7 -12 -8 -12 -2 0 14 12 26 19 19 2 -3 -1 -11 -7 -17z
m-46 -85 c-10 -31 -19 -39 -42 -41 -23 -3 -27 -1 -16 9 6 7 12 21 12 30 0 10
12 22 28 27 15 6 28 11 29 11 1 1 -4 -16 -11 -36z m5382 -15 c15 -19 17 -69 3
-103 -12 -28 -11 -31 15 -50 47 -33 86 -74 80 -84 -4 -5 -23 -5 -48 0 -23 6
-54 7 -70 4 -28 -7 -63 9 -97 42 -34 34 36 203 84 203 12 0 27 -6 33 -12z
m228 -6 c5 -4 15 -23 20 -42 7 -25 16 -36 32 -38 45 -7 20 -19 -41 -21 -77 -1
-97 11 -90 57 7 40 50 64 79 44z m124 -113 c0 -5 -7 -9 -15 -9 -15 0 -20 12
-9 23 8 8 24 -1 24 -14z m-511 -45 c9 -8 -31 -54 -48 -54 -11 0 -32 -16 -48
-36 -28 -34 -31 -36 -75 -29 -45 7 -46 8 -37 34 17 46 49 74 109 95 15 5 91
-3 99 -10z m-274 -37 c-1 -12 -4 -20 -6 -18 -2 2 -14 -1 -27 -8 -18 -10 -25
-9 -37 3 -29 29 -19 40 39 43 28 1 32 -2 31 -20z m-620 -67 c21 -14 47 -20 86
-20 30 0 60 -5 65 -10 6 -6 24 -13 40 -16 56 -9 92 -25 118 -51 31 -31 26 -40
-34 -52 -25 -5 -70 -15 -102 -22 -70 -16 -93 -4 -117 61 l-17 45 -64 3 c-36 1
-71 4 -78 7 -21 8 -9 48 18 62 34 17 50 16 85 -7z m782 -142 l23 -21 -21 -15
c-27 -19 -79 -8 -113 23 -42 39 -34 49 31 41 38 -4 65 -14 80 -28z m303 6 c12
-12 10 -14 -20 -14 -33 0 -110 -43 -110 -61 0 -12 -51 -11 -70 1 -13 8 -11 13
10 35 14 14 34 34 45 46 17 17 27 19 75 13 30 -3 62 -12 70 -20z m208 -32 c-1
-9 3 -35 7 -56 l8 -39 -34 8 c-19 4 -55 11 -82 14 -56 9 -67 18 -70 57 l-2 29
63 -3 c34 -2 70 1 79 7 22 12 32 6 31 -17z m-1480 -27 c13 -12 -12 -18 -70
-16 -65 2 -80 7 -61 19 12 8 123 6 131 -3z m150 9 c17 -5 20 -9 11 -20 -12
-15 -49 -2 -49 16 0 11 6 12 38 4z m586 -184 c20 -7 26 -17 26 -39 0 -48 -22
-62 -88 -55 -77 8 -82 10 -82 37 0 16 9 28 28 36 15 8 34 17 42 22 21 11 44
11 74 -1z m834 -173 c12 -13 19 -27 15 -30 -12 -13 -74 -7 -99 10 -25 16 -25
17 -8 30 27 20 68 16 92 -10z m-1058 -88 c39 -8 50 -15 50 -30 0 -24 -53 -49
-105 -49 -36 0 -108 30 -120 50 -23 37 69 52 175 29z m1364 -39 c-6 -6 -15 -6
-24 0 -13 9 -13 11 0 20 18 11 39 -5 24 -20z m-2314 10 c0 -5 -2 -10 -4 -10
-3 0 -8 5 -11 10 -3 6 -1 10 4 10 6 0 11 -4 11 -10z m1429 -26 c3 -2 0 -9 -6
-15 -14 -14 -126 8 -117 23 6 9 112 2 123 -8z m972 -69 c0 -6 -10 -12 -23 -13
-19 -4 -20 -2 -9 12 15 17 33 18 32 1z m-1479 -70 c15 -34 15 -35 -8 -35 -39
0 -74 18 -74 39 0 21 12 29 45 30 14 1 26 -10 37 -34z m-371 -45 l24 -19 -65
-1 c-36 0 -74 -3 -85 -5 -27 -7 -49 9 -42 29 10 25 137 23 168 -4z m1132 -115
c-3 -9 -8 -14 -10 -11 -3 3 -2 9 2 15 9 16 15 13 8 -4z m-4793 -629 c0 -2 -7
-6 -15 -10 -8 -3 -15 -1 -15 4 0 6 7 10 15 10 8 0 15 -2 15 -4z m36 -130 c0
-13 -4 -22 -8 -19 -5 2 -8 -4 -9 -14 0 -16 -1 -16 -9 2 -5 13 -3 26 8 38 19
22 20 22 18 -7z m-45 -43 c13 -16 12 -17 -3 -4 -10 7 -18 15 -18 17 0 8 8 3
21 -13z m-11 -39 c0 -2 -7 -4 -15 -4 -8 0 -15 4 -15 10 0 5 7 7 15 4 8 -4 15
-8 15 -10z m-1610 -158 c0 -2 -9 -6 -20 -9 -11 -3 -18 -1 -14 4 5 9 34 13 34
5z m1673 -3 c-7 -2 -19 -2 -25 0 -7 3 -2 5 12 5 14 0 19 -2 13 -5z m-106 -65
c-3 -8 -6 -5 -6 6 -1 11 2 17 5 13 3 -3 4 -12 1 -19z m273 -14 c0 -2 -7 -4
-15 -4 -8 0 -15 4 -15 10 0 5 7 7 15 4 8 -4 15 -8 15 -10z m-286 -16 c-3 -4
-9 -8 -15 -8 -5 0 -9 4 -9 8 0 5 7 9 15 9 8 0 12 -4 9 -9z m267 -25 c12 -16
12 -17 -2 -6 -9 7 -20 9 -24 5 -5 -4 -5 -1 -1 6 9 16 11 15 27 -5z m-128 0 c3
-5 -14 -9 -36 -9 -31 -2 -37 0 -22 6 26 11 53 12 58 3z m97 -27 c0 -3 -4 -8
-10 -11 -5 -3 -10 -1 -10 4 0 6 5 11 10 11 6 0 10 -2 10 -4z m-240 -72 c0 -8
-4 -12 -10 -9 -5 3 -10 10 -10 16 0 5 5 9 10 9 6 0 10 -7 10 -16z m837 -6 c1
-10 -4 -15 -12 -12 -9 4 -12 -1 -10 -13 2 -10 4 -23 4 -30 1 -13 26 -12 38 2
4 4 3 5 -3 2 -7 -4 -9 2 -6 19 2 14 6 23 8 22 3 -4 12 -56 13 -81 1 -10 5 -16
10 -13 5 4 7 -3 4 -14 -4 -16 -2 -19 11 -14 9 3 16 1 16 -5 0 -6 -4 -12 -10
-12 -5 -1 -14 -2 -20 -3 -5 0 -15 -10 -23 -20 -25 -34 -66 -27 -67 11 0 7 7
10 17 6 12 -5 14 -3 8 7 -6 10 -2 12 19 8 21 -4 24 -3 15 8 -7 9 -18 10 -34 4
-20 -8 -23 -6 -18 7 5 12 3 14 -6 8 -10 -6 -11 -2 -6 16 8 26 8 26 6 53 -1 15
-4 16 -16 6 -14 -11 -19 -7 -16 13 1 10 -17 9 -23 -2 -4 -5 -1 -11 6 -13 6 -2
12 -11 14 -19 1 -7 7 -28 12 -45 7 -24 7 -31 -4 -31 -7 0 -11 4 -8 9 9 14 -23
8 -36 -7 -7 -8 -8 -15 -3 -15 11 0 9 -42 -2 -59 -3 -6 0 -11 7 -12 7 0 4 -4
-7 -8 -39 -15 -70 9 -40 31 6 5 5 8 -3 8 -7 0 -10 5 -7 10 5 9 -16 14 -52 13
-7 0 -11 9 -10 21 2 19 -2 21 -48 19 -27 -1 -57 0 -65 4 -29 12 -39 11 -33 -3
3 -8 9 -11 14 -8 5 3 9 2 10 -3 5 -46 7 -56 17 -62 7 -4 30 -6 53 -5 32 2 39
-1 35 -13 -3 -8 -6 -18 -6 -22 0 -4 -9 -7 -20 -8 -13 -1 -18 2 -13 10 4 8 1 7
-9 -1 -9 -8 -14 -20 -11 -28 3 -8 0 -14 -6 -14 -6 0 -11 7 -11 15 0 8 -5 15
-11 15 -11 0 -39 25 -39 35 0 3 6 3 13 -1 8 -6 8 -3 -2 9 -7 9 -11 24 -7 32 3
9 2 13 -4 10 -6 -3 -10 3 -10 15 0 12 -4 19 -9 16 -4 -3 -6 5 -4 19 4 20 8 22
29 15 15 -6 24 -6 24 0 0 31 25 49 68 50 29 0 32 -3 32 -30 0 -38 26 -41 42
-5 7 16 17 24 26 20 12 -5 13 -3 2 10 -7 9 -9 15 -4 14 5 -1 16 -1 24 0 12 1
13 3 1 10 -16 10 62 24 97 16 19 -3 21 -1 13 9 -14 16 -9 21 21 21 16 0 25 -6
25 -17z m-802 -18 c3 -5 -1 -10 -10 -10 -9 0 -13 5 -10 10 3 6 8 10 10 10 2 0
7 -4 10 -10z m215 -16 c0 -3 -4 -3 -9 1 -5 3 -12 1 -15 -4 -4 -5 -2 -12 4 -16
6 -4 7 -12 1 -24 -16 -29 -2 -59 29 -63 28 -4 28 -4 23 46 -2 28 -6 57 -8 64
-4 11 5 15 22 10 4 -2 9 -11 10 -21 2 -12 -1 -16 -9 -11 -10 5 -10 3 0 -7 7
-8 25 -14 40 -14 23 0 27 -4 27 -30 0 -21 5 -30 16 -29 25 2 20 -33 -7 -45
-14 -6 -22 -16 -19 -21 11 -18 -15 -41 -35 -30 -9 5 -20 7 -22 4 -3 -2 -11 2
-18 11 -8 10 -9 15 -2 15 6 0 9 7 5 16 -6 16 -7 16 -18 0 -7 -9 -19 -14 -29
-10 -10 4 -17 1 -18 -7 -4 -40 -19 -79 -30 -79 -6 0 -4 -8 3 -17 12 -15 12
-16 -1 -8 -13 8 -13 7 0 -9 8 -11 16 -14 18 -7 2 6 8 11 13 11 6 0 7 -4 4 -10
-3 -5 -2 -10 3 -10 15 0 20 -23 10 -45 -8 -18 -8 -18 -4 3 5 29 -1 28 -26 -3
-11 -14 -30 -25 -42 -25 -19 0 -23 5 -21 25 2 14 -1 23 -5 20 -16 -10 -22 16
-8 32 7 9 12 25 10 35 -2 11 2 27 9 36 11 14 11 15 -1 5 -22 -20 -29 -15 -25
15 2 15 4 30 4 35 1 4 8 7 16 7 17 0 34 30 27 49 -2 8 3 18 12 23 9 5 14 14
10 19 -3 5 0 8 8 7 7 -2 12 3 11 10 -2 6 3 12 10 12 7 1 4 7 -7 15 -26 20 -14
50 14 35 11 -6 20 -13 20 -16z m-1765 7 c3 -5 2 -12 -3 -15 -5 -3 -9 1 -9 9 0
17 3 19 12 6z m1575 -56 c-10 -12 -10 -15 0 -15 8 0 11 -3 7 -6 -3 -3 -11 -3
-17 1 -8 5 -8 11 1 21 6 8 14 14 16 14 3 0 0 -7 -7 -15z m-986 -37 c-5 -8 -2
-9 9 -5 13 5 17 0 17 -22 0 -17 -6 -31 -15 -35 -13 -5 -14 -2 -4 15 8 15 8 19
0 15 -6 -4 -11 -2 -11 4 0 6 -5 8 -11 4 -8 -4 -8 0 0 15 7 11 14 21 17 21 3 0
2 -5 -2 -12z m1090 -23 c7 -19 -7 -35 -19 -21 -5 6 -11 16 -12 22 -3 15 25 13
31 -1z m371 -4 c10 -17 -15 -23 -31 -7 -14 15 -14 16 5 16 11 0 22 -4 26 -9z
m255 -47 c0 -2 -9 -4 -21 -4 -11 0 -18 4 -14 10 5 8 35 3 35 -6z m-428 -61
c-6 -2 -9 -10 -6 -15 4 -7 2 -8 -5 -4 -13 9 -5 26 12 25 9 0 8 -2 -1 -6z
m-1809 -9 c-7 -3 -9 -12 -6 -21 4 -11 2 -14 -5 -9 -18 11 -14 36 6 35 9 0 12
-3 5 -5z m1682 -4 c3 -5 -1 -10 -9 -10 -9 0 -16 5 -16 10 0 6 4 10 9 10 6 0
13 -4 16 -10z m285 -29 c0 -9 -29 -11 -50 -4 -12 4 -11 7 5 13 21 8 45 3 45
-9z m-1250 -47 c0 -8 4 -12 10 -9 5 3 7 0 4 -9 -8 -20 -33 -9 -31 15 2 23 17
26 17 3z m-85 -44 c3 -6 -4 -10 -17 -10 -18 0 -20 2 -8 10 19 12 18 12 25 0z
m480 -80 c3 -5 1 -10 -4 -10 -6 0 -11 5 -11 10 0 6 2 10 4 10 3 0 8 -4 11 -10z
m-741 -14 c-3 -9 -12 -12 -22 -9 -15 6 -9 11 25 22 1 1 0 -5 -3 -13z m403 -26
c-1 -11 -5 -20 -10 -20 -4 0 -6 -4 -3 -9 3 -4 -5 -6 -19 -4 -16 4 -22 10 -18
20 3 8 12 12 20 9 7 -3 16 1 19 9 8 21 13 19 11 -5z m-192 -21 c0 -18 7 -25
24 -27 18 -3 22 0 18 11 -4 11 0 13 14 10 10 -3 19 -10 19 -15 0 -5 -4 -6 -10
-3 -12 8 -13 -5 -1 -24 12 -19 33 -4 26 18 -3 10 1 24 9 30 12 10 13 8 9 -10
-5 -16 -3 -20 6 -14 10 6 11 3 2 -12 -6 -11 -7 -23 -4 -27 3 -3 -1 -7 -10 -7
-30 -2 -35 -4 -42 -11 -4 -4 -17 -1 -27 7 -23 15 -52 9 -41 -9 4 -6 -1 -5 -10
3 -14 11 -15 16 -5 29 11 13 9 14 -12 7 -14 -4 -32 -12 -40 -17 -12 -8 -11 -8
4 -4 13 5 17 2 12 -9 -4 -11 1 -15 17 -15 l21 0 -22 -16 c-12 -8 -19 -20 -16
-26 4 -7 2 -8 -4 -4 -7 4 -12 1 -12 -10 0 -12 -3 -14 -13 -6 -20 17 -39 -1
-31 -31 4 -18 2 -27 -6 -27 -6 0 -8 5 -5 10 3 6 3 15 0 20 -9 15 -48 -9 -41
-25 4 -11 0 -12 -18 -5 -13 5 -26 7 -29 4 -2 -3 -9 8 -15 24 -9 27 -8 29 9 25
10 -3 19 -9 19 -14 0 -4 9 -7 21 -6 14 1 19 7 15 20 -3 14 -2 16 9 7 9 -8 15
-8 20 0 9 14 -24 25 -37 12 -7 -7 -29 -9 -57 -5 -40 6 -44 4 -34 -9 7 -8 10
-18 6 -21 -3 -4 0 -7 7 -7 11 0 11 -3 3 -11 -9 -9 -16 -8 -28 5 -9 9 -20 14
-25 11 -5 -3 -7 3 -5 12 1 10 8 17 15 15 6 -1 9 2 6 6 -3 5 -24 8 -46 7 -22
-1 -40 2 -40 6 0 14 -28 11 -33 -3 -2 -7 -8 -10 -12 -5 -5 4 -3 18 4 30 7 13
11 32 9 43 -2 12 4 20 17 22 11 2 29 11 39 21 12 10 16 11 11 2 -4 -7 -4 -12
1 -9 5 2 23 10 39 17 17 7 38 17 47 22 23 12 55 12 62 0 4 -5 -7 -15 -24 -23
-43 -18 -38 -35 9 -28 17 2 42 26 35 33 -3 3 3 10 14 16 17 9 19 7 16 -14 -1
-15 2 -23 8 -19 6 4 8 -1 4 -14 -4 -12 -2 -23 5 -28 8 -5 11 -2 7 7 -5 13 20
47 32 42 3 -2 5 3 5 10 0 12 51 36 70 32 6 -1 10 -13 10 -26z m-330 3 c-3 -3
-11 0 -18 7 -9 10 -8 11 6 5 10 -3 15 -9 12 -12z m138 -242 c3 -11 1 -18 -4
-14 -5 3 -9 0 -9 -6 0 -6 -4 -9 -9 -6 -7 5 -8 23 -2 44 3 10 20 -2 24 -18z
m44 -31 c-3 -23 -10 -45 -16 -50 -6 -5 -9 -6 -6 -2 3 3 -2 15 -12 25 -9 10
-11 18 -6 18 6 0 14 11 17 25 11 43 29 30 23 -16z m55 15 c-3 -18 -1 -25 6
-20 6 3 9 -1 8 -11 -2 -9 -13 -20 -25 -25 -20 -7 -22 -5 -19 20 2 21 25 62 34
62 1 0 -1 -12 -4 -26z m135 -50 c-3 -3 -12 -4 -19 -1 -8 3 -5 6 6 6 11 1 17
-2 13 -5z m-122 -53 c3 -5 1 -12 -5 -16 -5 -3 -10 0 -10 7 0 9 -3 9 -10 -2 -5
-8 -10 -10 -10 -4 0 22 24 32 35 15z m-41 -27 c4 -12 2 -15 -9 -10 -8 3 -14 0
-12 -6 3 -15 -32 -23 -45 -10 -12 12 17 42 42 42 10 0 21 -7 24 -16z m375
-3204 c57 -28 167 -143 173 -179 5 -30 -33 -84 -91 -131 -51 -40 -61 -44 -108
-44 -41 1 -60 7 -94 33 -24 17 -48 31 -54 31 -20 0 -46 36 -51 71 -3 20 4 67
18 114 22 77 25 81 68 103 54 27 89 28 139 2z"/>
<path d="M6033 5135 c0 -8 4 -15 9 -15 4 0 8 7 8 15 0 8 -4 15 -8 15 -5 0 -9
-7 -9 -15z"/>
<path d="M4465 4599 c-4 -6 -5 -12 -2 -15 2 -3 7 2 10 11 7 17 1 20 -8 4z"/>
<path d="M5527 10154 c-9 -10 4 -34 18 -34 8 0 13 9 12 20 -1 19 -17 27 -30
14z"/>
<path d="M5021 9424 c-30 -13 -78 -32 -105 -41 -84 -26 -136 -53 -190 -95 -28
-23 -78 -53 -112 -68 -59 -27 -74 -43 -74 -79 0 -19 -39 -61 -57 -61 -10 0
-63 -42 -115 -92 -24 -23 -23 -50 2 -73 11 -10 20 -28 20 -40 0 -13 8 -33 18
-45 16 -19 33 -24 117 -31 54 -5 113 -15 132 -24 37 -18 122 -16 145 3 8 6 17
9 20 6 3 -3 30 1 60 9 31 8 77 12 104 10 62 -6 71 3 78 84 3 35 15 77 27 97
11 19 18 39 15 44 -3 5 -33 12 -66 15 -93 10 -160 53 -160 102 0 16 13 39 35
61 19 19 35 38 35 42 0 5 32 19 72 31 40 13 84 32 98 43 34 25 54 16 75 -35
70 -166 104 -210 197 -253 59 -27 70 -29 183 -28 160 2 196 13 235 69 16 24
44 53 60 65 31 22 39 40 19 40 -11 0 -64 40 -114 86 -32 29 -91 108 -85 114 2
3 -16 16 -40 29 -40 22 -56 25 -155 24 -60 0 -130 -6 -155 -13 -73 -21 -168
-17 -215 8 -22 12 -42 22 -45 22 -3 0 -29 -12 -59 -26z"/>
<path d="M4792 8597 c-7 -8 -9 -16 -6 -19 3 -3 -6 -8 -19 -12 -14 -3 -32 -17
-41 -31 -14 -21 -15 -32 -6 -65 14 -52 11 -52 225 -25 102 13 145 23 159 35
18 17 18 18 -5 25 -58 16 -140 56 -134 65 8 13 -48 30 -90 28 -22 -1 -47 1
-56 6 -9 4 -20 1 -27 -7z"/>
<path d="M5154 8346 c-3 -8 -20 -20 -37 -26 -18 -7 -50 -21 -72 -31 -45 -21
-167 -59 -188 -59 -8 0 -35 -11 -61 -25 -33 -18 -63 -25 -100 -25 -40 0 -57
-5 -71 -20 -17 -19 -17 -21 1 -41 28 -32 118 -21 210 25 38 19 87 38 109 42
22 4 71 24 108 45 40 23 88 41 117 45 61 8 75 22 59 58 -9 19 -20 26 -41 26
-16 0 -31 -6 -34 -14z"/>
<path d="M11423 6538 c-5 -7 -16 -32 -23 -56 -7 -24 -21 -47 -31 -52 -9 -5
-19 -18 -21 -28 -5 -18 -2 -18 27 -9 26 7 45 6 84 -7 27 -9 52 -16 55 -16 13
0 5 65 -10 81 -15 17 -15 19 0 34 19 19 20 37 4 53 -16 16 -73 15 -85 0z"/>
<path d="M11305 6390 c3 -5 11 -10 16 -10 6 0 7 5 4 10 -3 6 -11 10 -16 10 -6
0 -7 -4 -4 -10z"/>
<path d="M830 5988 c-75 -9 -176 -34 -281 -69 -31 -10 -71 -19 -90 -19 -19 0
-106 -14 -193 -32 -123 -24 -172 -38 -213 -62 -46 -27 -53 -35 -53 -63 0 -44
14 -43 119 11 79 40 130 55 286 82 22 4 42 8 45 9 3 0 19 8 35 17 17 9 53 18
80 21 53 5 157 31 178 44 6 4 63 17 126 28 67 12 116 25 119 33 4 14 -41 14
-158 0z"/>
<path d="M1663 5594 c-3 -8 -12 -13 -19 -10 -7 3 -19 0 -26 -7 -17 -17 -80
-15 -94 2 -11 14 -67 23 -58 10 2 -4 -3 -10 -12 -13 -10 -4 -13 -2 -8 7 4 6
-5 0 -20 -15 -24 -23 -33 -26 -72 -21 -44 4 -45 4 -34 -17 7 -13 8 -20 2 -16
-6 3 -14 1 -18 -5 -4 -7 -3 -9 4 -5 6 3 13 2 17 -4 4 -6 11 -7 17 -4 7 4 7 0
0 -13 -12 -21 -13 -20 51 -25 23 -2 32 -8 31 -20 -1 -10 3 -18 10 -18 6 -1 -1
-7 -15 -15 -17 -9 -46 -13 -78 -11 -28 2 -51 0 -51 -4 0 -4 -25 -7 -55 -6 -50
2 -60 -3 -56 -26 0 -4 -8 -12 -19 -18 -32 -17 -24 -27 31 -40 86 -21 185 -2
309 58 26 13 56 16 119 14 63 -2 89 1 107 13 14 9 30 15 37 14 35 -4 44 2 41
27 -2 25 -2 25 17 8 10 -9 19 -14 19 -9 0 4 6 2 14 -4 10 -8 16 -9 21 -1 4 7
12 7 26 0 11 -6 24 -8 29 -5 5 3 11 1 15 -5 9 -14 51 -13 62 3 6 6 13 24 17
39 3 15 17 35 31 44 14 9 25 22 25 29 0 13 -36 31 -53 27 -4 -1 -28 9 -54 22
-25 14 -50 23 -55 20 -4 -3 -8 0 -8 7 0 7 -8 9 -22 4 -29 -8 -170 -13 -183 -6
-20 11 -36 9 -42 -5z m-257 -88 c0 -14 -4 -22 -8 -20 -4 3 -8 14 -8 25 0 10 4
19 8 19 4 0 8 -11 8 -24z m219 5 c-8 -14 -25 -14 -25 0 0 5 5 7 10 4 6 -3 10
-1 10 6 0 7 3 10 6 6 3 -3 3 -10 -1 -16z m-25 -23 c0 -5 -4 -8 -10 -8 -5 0
-10 10 -10 23 0 18 2 19 10 7 5 -8 10 -18 10 -22z"/>
<path d="M5498 5593 c7 -3 16 -2 19 1 4 3 -2 6 -13 5 -11 0 -14 -3 -6 -6z"/>
<path d="M5520 5520 c-8 -5 -12 -12 -9 -15 4 -3 12 1 19 10 14 17 11 19 -10 5z"/>
<path d="M1308 5423 c6 -2 9 -10 6 -15 -4 -7 -2 -8 5 -4 13 9 5 26 -12 25 -9
0 -8 -2 1 -6z"/>
<path d="M5420 5315 c-11 -13 -10 -14 4 -9 9 4 16 2 14 -4 -2 -5 0 -10 5 -11
4 -1 7 1 7 4 0 3 0 12 0 20 0 19 -14 19 -30 0z"/>
<path d="M4576 5184 c-6 -17 30 -39 39 -24 4 6 11 8 16 5 5 -4 9 2 9 13 0 14
-7 19 -29 20 -17 0 -32 -5 -35 -14z m27 -8 c4 -10 1 -13 -8 -9 -8 3 -12 9 -9
14 7 12 11 11 17 -5z"/>
<path d="M9785 5180 c-3 -5 -16 -10 -29 -10 -12 0 -26 -3 -30 -7 -4 -5 -26 -8
-49 -8 -47 0 -61 -22 -27 -43 17 -10 23 -9 37 7 15 18 19 18 37 5 25 -17 87
-18 105 -1 11 9 12 9 7 0 -4 -7 6 -5 23 5 17 9 25 19 18 21 -6 2 -14 7 -17 10
-16 20 -48 29 -60 18 -10 -9 -11 -9 -6 1 8 14 0 17 -9 2z"/>
<path d="M9606 5151 c-4 -7 -5 -15 -2 -18 9 -9 19 4 14 18 -4 11 -6 11 -12 0z"/>
<path d="M5401 5124 c0 -11 3 -14 6 -6 3 7 2 16 -1 19 -3 4 -6 -2 -5 -13z"/>
<path d="M9289 5132 c11 -8 11 -10 0 -15 -10 -4 -8 -6 4 -6 21 -1 18 21 -4 27
-12 3 -12 2 0 -6z"/>
<path d="M9538 5113 c6 -2 18 -2 25 0 6 3 1 5 -13 5 -14 0 -19 -2 -12 -5z"/>
<path d="M10406 5112 c-3 -6 5 -12 17 -14 40 -8 102 -4 107 7 6 13 -116 19
-124 7z"/>
<path d="M11094 5106 c-28 -21 -10 -33 73 -47 57 -9 82 -9 118 1 25 7 44 17
43 22 -11 33 -196 52 -234 24z"/>
<path d="M3946 4987 c-14 -11 -13 -13 9 -24 14 -6 23 -7 20 -3 -3 5 -1 10 4
12 5 1 3 8 -4 15 -10 9 -16 9 -29 0z"/>
<path d="M4970 4850 c0 -5 7 -10 16 -10 8 0 12 5 9 10 -3 6 -10 10 -16 10 -5
0 -9 -4 -9 -10z"/>
<path d="M4959 4825 c-1 -5 -2 -22 -3 -38 -2 -24 0 -25 13 -13 11 12 12 20 3
38 -6 13 -12 19 -13 13z"/>
<path d="M4910 4806 c0 -2 7 -7 16 -10 8 -3 12 -2 9 4 -6 10 -25 14 -25 6z"/>
<path d="M11423 4560 c-13 -5 -23 -14 -23 -20 0 -13 107 -13 115 1 4 6 5 12 4
13 -11 10 -77 13 -96 6z"/>
<path d="M2764 3998 c-7 -11 58 -10 76 2 11 7 3 9 -28 8 -24 -1 -45 -5 -48
-10z"/>
<path d="M788 779 c-28 -16 -22 -39 10 -39 29 0 68 31 55 43 -9 10 -45 8 -65
-4z"/>
<path d="M1492 449 c-52 -51 -54 -51 -101 -45 -34 4 -59 1 -86 -10 -22 -9 -56
-17 -76 -18 -20 -2 -49 -12 -64 -24 l-28 -22 -18 21 c-12 14 -17 30 -13 45 4
16 0 25 -14 33 -29 15 -123 13 -145 -3 -16 -12 -16 -15 -2 -29 16 -16 20 -55
7 -72 -4 -5 -43 -11 -87 -12 -61 -1 -88 3 -117 18 -23 12 -65 20 -110 23 -40
2 -99 9 -131 16 -51 12 -60 11 -74 -2 -11 -12 -23 -14 -46 -7 -37 11 -49 27
-42 58 5 21 3 23 -17 17 -13 -4 -39 -9 -58 -12 -19 -4 -53 -14 -75 -24 -28
-12 -58 -17 -99 -14 -63 4 -83 14 -89 47 -2 12 -5 -80 -6 -205 l-1 -228 135 0
c93 0 134 3 132 11 -1 6 6 16 15 22 14 9 22 7 41 -11 l23 -22 987 0 c651 0
987 3 987 10 0 6 -8 10 -18 10 -27 0 -62 29 -62 51 0 13 13 25 38 37 20 9 39
20 40 25 5 10 72 9 72 -2 0 -5 -7 -12 -15 -15 -11 -4 -15 -17 -13 -46 1 -29 6
-39 15 -35 8 3 11 0 7 -6 -3 -6 -16 -14 -28 -19 -15 -6 -6 -9 37 -9 l58 -1
-20 26 c-29 36 -15 120 17 100 11 -7 10 -75 -1 -92 -15 -25 47 -34 218 -34
133 0 174 3 172 12 -3 19 41 21 68 4 21 -14 96 -16 643 -16 467 0 621 3 630
12 9 9 12 9 12 0 0 -9 72 -12 295 -12 l295 0 -6 28 c-10 38 -11 40 -55 61 -37
18 -42 18 -68 4 -15 -9 -32 -26 -37 -37 -6 -14 -20 -22 -41 -24 -32 -3 -33 -2
-33 32 0 30 -4 37 -27 42 -15 4 -41 15 -58 24 -43 25 -120 43 -148 36 -25 -6
-52 -54 -50 -87 1 -12 -3 -16 -13 -12 -8 3 -14 0 -14 -7 0 -10 -3 -10 -15 0
-8 7 -15 21 -15 31 0 24 -26 39 -66 39 -11 0 -15 6 -12 18 3 10 -1 27 -8 37
-11 15 -22 17 -88 10 -91 -8 -113 -26 -64 -51 18 -9 53 -22 77 -29 49 -12 57
-22 39 -48 -11 -14 -19 -15 -46 -8 -21 6 -61 6 -115 -1 -45 -6 -176 -13 -292
-15 -115 -2 -223 -6 -240 -9 -17 -3 -42 1 -58 9 -20 11 -39 12 -74 6 -52 -10
-146 -1 -137 12 3 5 18 9 34 9 46 0 53 27 17 67 -17 18 -36 33 -44 33 -7 0
-16 7 -20 16 -9 24 -50 36 -73 22 -15 -10 -32 -9 -77 1 -32 7 -69 13 -83 11
-53 -4 -69 -3 -198 15 -98 13 -139 15 -160 7 -15 -6 -60 -14 -100 -18 -59 -5
-81 -3 -113 11 -21 10 -39 24 -39 31 0 19 -20 28 -33 15 -8 -8 -5 -17 12 -35
l22 -24 -23 -16 c-13 -10 -24 -12 -26 -6 -5 14 -43 12 -92 -5 -24 -8 -45 -13
-47 -11 -8 7 21 46 38 51 9 3 26 17 39 30 42 44 2 56 -130 40 -52 -6 -71 -14
-95 -38 -51 -49 -98 -56 -149 -21 -14 9 -37 11 -76 7 -47 -4 -58 -3 -63 11 -4
9 -4 22 -1 30 8 20 58 30 83 16 30 -16 157 24 172 54 6 11 27 35 47 53 20 17
33 35 29 39 -8 8 -80 7 -110 -2 -9 -3 -24 -19 -32 -35 -16 -30 -46 -42 -102
-42 -40 0 -59 15 -73 58 -11 32 -58 65 -92 65 -7 0 -37 -23 -66 -51z m-911
-194 c26 -14 50 -29 54 -34 12 -21 -35 -31 -112 -25 -70 5 -80 4 -99 -14 -12
-11 -40 -25 -62 -31 -22 -6 -45 -18 -52 -27 -7 -8 -20 -12 -28 -9 -10 4 -12 0
-8 -10 7 -18 -13 -28 -46 -23 -22 3 -22 4 7 18 16 8 31 22 33 31 4 23 -25 49
-54 49 -35 0 -64 18 -58 34 10 26 95 54 165 55 37 0 77 5 90 11 35 14 115 3
170 -25z"/>
<path d="M322 223 c4 -2 4 -11 1 -19 -3 -9 2 -14 14 -14 11 0 20 7 20 15 0 8
-4 15 -8 15 -4 0 -13 2 -21 3 -7 2 -10 2 -6 0z"/>
<path d="M3005 490 c-4 -6 3 -29 14 -51 12 -22 21 -46 21 -53 0 -8 24 -44 52
-80 51 -64 54 -66 98 -66 39 0 51 5 78 33 18 18 32 42 32 53 0 30 -31 54 -71
54 -37 0 -81 26 -142 84 -38 36 -70 46 -82 26z"/>
<path d="M5217 464 c-13 -14 6 -24 44 -24 28 0 39 4 39 15 0 11 -11 15 -38 15
-21 0 -42 -3 -45 -6z"/>
<path d="M9790 450 c-8 -5 -27 -10 -42 -10 -47 0 -39 -17 18 -39 49 -18 61
-20 95 -9 30 8 48 8 78 0 54 -17 85 -15 104 6 10 10 17 22 17 25 0 4 -35 7
-77 7 -50 0 -88 6 -107 15 -32 17 -64 19 -86 5z"/>
<path d="M783 433 c-19 -7 -16 -20 7 -26 25 -6 48 18 24 27 -8 3 -16 6 -17 5
-1 0 -8 -3 -14 -6z"/>
<path d="M9293 389 c-26 -10 -31 -50 -9 -68 8 -6 16 -21 19 -32 4 -17 -2 -23
-31 -35 -20 -8 -50 -21 -65 -29 -41 -21 -52 -19 -87 18 l-31 32 -49 -55 c-27
-30 -50 -58 -50 -62 0 -5 -16 -8 -35 -8 -19 0 -43 -4 -53 -9 -9 -5 -29 -14
-44 -22 -16 -7 -28 -18 -28 -26 0 -12 -24 -14 -45 -2 -5 3 -28 7 -50 8 -22 1
-47 9 -55 17 -17 16 -19 77 -6 165 7 48 6 57 -9 62 -25 10 -53 -9 -126 -84
-65 -67 -67 -69 -116 -69 -60 0 -79 -14 -119 -87 -24 -45 -27 -55 -16 -78 l12
-26 462 4 c255 3 468 6 473 7 6 1 56 -1 113 -6 l103 -7 -6 26 c-8 31 15 46 72
49 38 1 38 1 5 5 -44 6 -60 38 -44 90 6 21 13 50 16 64 3 14 16 31 30 38 32
17 37 39 19 83 -18 45 -34 52 -80 33 -44 -19 -102 -19 -128 -1 -13 9 -28 11
-42 5z m-753 -274 c40 -41 43 -46 28 -61 -22 -22 -138 -36 -157 -19 -32 31 19
125 68 125 9 0 37 -20 61 -45z"/>
<path d="M3902 342 c-17 -9 -50 -34 -73 -55 -48 -43 -43 -64 13 -53 39 8 54
19 90 67 22 30 25 39 15 48 -10 8 -22 6 -45 -7z"/>
<path d="M5925 329 c-11 -17 55 -77 98 -88 48 -12 106 -1 127 24 19 23 4 32
-67 38 -38 3 -87 12 -111 20 -23 8 -45 11 -47 6z"/>
<path d="M5210 292 c-29 -4 -60 -29 -60 -48 0 -24 35 -89 58 -107 12 -10 22
-27 22 -38 0 -10 8 -37 17 -59 l18 -40 104 0 c76 0 102 3 94 11 -6 6 -19 9
-29 7 -18 -3 -54 19 -54 33 0 13 56 28 122 32 55 4 73 1 105 -17 21 -12 39
-27 39 -34 1 -7 2 -16 3 -22 1 -6 46 -10 114 -10 l112 0 17 40 c9 23 23 40 32
40 26 0 18 30 -10 40 -15 6 -41 8 -59 4 -18 -3 -43 -3 -55 1 -19 6 -20 11 -14
51 8 54 -6 74 -51 74 -46 0 -65 -9 -75 -35 -9 -23 -10 -23 -170 -19 -172 3
-196 10 -186 50 9 34 -33 55 -94 46z"/>
<path d="M6772 203 c-7 -3 -23 -21 -36 -42 -18 -28 -36 -41 -84 -58 -33 -12
-69 -19 -81 -16 -12 3 -33 -5 -54 -21 l-35 -27 -68 16 c-38 9 -84 25 -102 35
-40 24 -61 25 -68 5 -8 -20 13 -45 37 -45 15 0 18 -6 15 -25 l-5 -25 272 0
272 1 33 43 c37 50 39 63 12 115 -24 48 -61 63 -108 44z"/>
<path d="M7753 198 c-14 -18 -23 -57 -16 -74 7 -18 47 -18 62 0 7 8 11 30 9
48 -2 25 -8 34 -24 36 -11 2 -25 -3 -31 -10z"/>
<path d="M3570 185 c-10 -12 -10 -18 0 -30 22 -26 52 -16 64 23 7 19 4 22 -22
22 -16 0 -35 -7 -42 -15z"/>
<path d="M6180 175 c-19 -20 -22 -30 -14 -43 27 -43 118 -13 112 37 -3 22 -9
26 -38 29 -28 2 -41 -3 -60 -23z"/>
<path d="M7413 183 c-18 -7 -16 -74 3 -101 21 -30 68 -29 116 5 53 36 48 59
-17 84 -49 19 -78 22 -102 12z"/>
<path d="M7938 169 c-10 -5 -18 -18 -18 -28 0 -21 19 -31 57 -31 18 0 24 -5
21 -17 -3 -15 -15 -18 -62 -19 -61 -2 -79 -12 -91 -52 l-7 -24 114 4 c106 3
117 5 150 30 26 20 39 40 47 74 7 26 8 50 4 54 -14 13 -197 20 -215 9z"/>
<path d="M10787 144 c-33 -8 -84 -32 -115 -53 -32 -20 -84 -48 -116 -62 l-59
-24 188 -3 c152 -2 191 0 204 12 9 8 63 24 121 36 125 26 142 34 138 63 -3 21
-7 22 -83 19 -53 -2 -95 2 -124 13 -51 18 -76 18 -154 -1z"/>
<path d="M3217 113 c-12 -12 -7 -22 8 -17 8 4 15 10 15 15 0 11 -14 12 -23 2z"/>
<path d="M7100 70 c-19 -10 -45 -19 -57 -20 -13 0 -40 -6 -60 -14 -21 -8 -54
-18 -73 -24 -26 -7 20 -10 185 -11 165 0 215 2 200 11 -11 6 -33 23 -50 39
-41 38 -98 46 -145 19z"/>
<path d="M6050 46 c0 -8 -7 -22 -16 -30 -14 -15 -10 -16 40 -16 48 0 55 2 49
18 -13 36 -73 60 -73 28z"/>
<path d="M7494 9 c-3 -5 6 -9 20 -9 31 0 34 6 6 13 -11 3 -23 1 -26 -4z"/>
<path d="M6188 3 c6 -2 18 -2 25 0 6 3 1 5 -13 5 -14 0 -19 -2 -12 -5z"/>
</g>
</svg>
